<svg width="40" height="40" viewBox="0 0 40 40" fill="none" xmlns="http://www.w3.org/2000/svg">
  <!-- 背景矩形 -->
  <rect width="40" height="40" rx="8" fill="#F0EDFF"/>
  <!-- 图标组，缩放并居中 -->
  <g transform="translate(8,8) scale(0.2)">
    <path d="M120.5 30.491c-9.561.43-23.96-7.797-35.597-17.147l.001.01C73.241 2.9 56.91-2.019 40.43 1.54 13.114 7.438-4.248 34.36 1.65 61.676c5.898 27.315 32.822 44.677 60.136 38.779a50.679 50.679 0 0 0 11.055-3.77l.295-.139c.355-.171.71-.342 1.06-.522C95.172 85.638 105.59 64.197 112.92 61.01c-3.451-.466-6.384-.759-9.328-.788 5.409-11.6 10.495-23.878 16.907-29.731Z" fill="url(#a)"/>
    <path d="M50.637 83.797c18.329 0 33.187-14.859 33.187-33.188S68.966 17.422 50.637 17.422c-18.33 0-33.188 14.858-33.188 33.187 0 18.33 14.859 33.188 33.188 33.188Z" fill="#222"/>
    <g fill="#fff">
      <path d="M55.17 53.464a3.903 3.903 0 0 0 7.807 0v-4.878a3.903 3.903 0 0 0-7.806 0v4.878ZM38.397 53.464a3.903 3.903 0 0 0 7.806 0v-4.878a3.903 3.903 0 1 0-7.806 0v4.878Z"/>
    </g>
    <defs>
      <linearGradient id="a" x1="120.5" y1="50.998" x2=".5" y2="50.998" gradientUnits="userSpaceOnUse">
        <stop offset=".003" stop-color="#6D3AFF"/>
        <stop offset=".12" stop-color="#9C33D1"/>
        <stop offset=".236" stop-color="#C42EAA"/>
        <stop offset=".343" stop-color="#E12B8E"/>
        <stop offset=".436" stop-color="#F2287E"/>
        <stop offset=".503" stop-color="#F92878"/>
        <stop offset=".923" stop-color="#FF9151"/>
      </linearGradient>
    </defs>
  </g>
</svg>